# This file uses centimeters as units for non-parametric coordinates.

mtllib island.mtl
g default
v -11.875604 -0.051949 11.987466
v -6.855367 -3.421843 12.228795
v -4.797689 -8.241871 10.003154
v -1.608712 -11.685708 6.553872
v 0.384118 -16.579096 4.398375
v -11.910443 -0.048259 7.158586
v -10.751182 -3.457239 7.026887
v -7.022043 -8.226268 6.248414
v -2.633918 -11.805593 5.112070
v 0.348982 -16.579096 4.339624
v -11.958042 -0.079555 -11.835929
v -10.825716 -3.640128 -4.730172
v -7.456271 -8.097755 -3.621771
v -2.077277 -11.373847 3.472344
v 0.351186 -16.579096 4.271204
v -7.617361 -0.067086 -11.838561
v -6.253581 -3.343762 -9.533185
v -4.723157 -7.693490 -6.756794
v -1.938745 -12.310791 -4.216915
v 0.390032 -16.579096 4.214837
v -0.917921 -0.063436 -12.054497
v -0.834594 -4.064832 -11.835604
v -0.319913 -7.724925 -8.336035
v -0.016207 -12.769514 -5.601071
v 0.453185 -16.579096 4.188419
v 6.154040 -0.066667 -11.905824
v 5.011362 -3.062482 -10.412400
v 3.541012 -7.552550 -7.449202
v 1.615828 -11.297777 1.993112
v 0.520595 -16.579096 4.200338
v 11.934142 -0.052955 -11.936636
v 9.711879 -3.413409 -6.782556
v 6.530175 -7.674738 -4.879706
v 3.078121 -11.674090 2.747318
v 0.570860 -16.579096 4.246810
v 11.851224 -0.041038 4.657127
v 11.715453 -3.722230 4.671584
v 7.359908 -7.536238 4.531257
v 4.395880 -12.404946 4.435762
v 0.588021 -16.579096 4.313080
v 11.995768 -0.069522 11.837291
v 8.661374 -2.888016 9.956584
v 7.014190 -8.404105 8.821430
v 4.320783 -13.021502 6.965273
v 0.566630 -16.579096 4.378108
v 5.114847 -0.057001 11.921285
v 4.698162 -3.536818 11.422776
v 3.159593 -7.603246 10.746948
v 1.949682 -12.332380 7.854584
v 0.513478 -16.579096 4.421248
v -1.592318 -0.054168 11.994118
v -1.483843 -3.688497 12.337875
v -0.799104 -7.842645 11.467473
v -0.122481 -11.954058 7.640738
v 0.445440 -16.579096 4.428803
vt 0.090909 0.402068
vt 0.000000 0.402068
vt 0.090909 0.508775
vt 0.000000 0.508775
vt 0.090909 0.672516
vt 0.000000 0.672516
vt 0.090909 0.836258
vt 0.000000 0.836258
vt 0.090909 1.000000
vt 0.000000 1.000000
vt 0.181818 0.402068
vt 0.181818 0.508775
vt 0.181818 0.672516
vt 0.181818 0.836258
vt 0.181818 1.000000
vt 0.272727 0.402068
vt 0.272727 0.508775
vt 0.272727 0.672516
vt 0.272727 0.836258
vt 0.272727 1.000000
vt 0.363636 0.402068
vt 0.363636 0.508775
vt 0.363636 0.672516
vt 0.363636 0.836258
vt 0.363636 1.000000
vt 0.454545 0.402068
vt 0.454545 0.508775
vt 0.454545 0.672516
vt 0.454545 0.836258
vt 0.454545 1.000000
vt 0.545455 0.402068
vt 0.545455 0.508775
vt 0.545455 0.672516
vt 0.545455 0.836258
vt 0.545455 1.000000
vt 0.636364 0.402068
vt 0.636364 0.508775
vt 0.636364 0.672516
vt 0.636364 0.836258
vt 0.636364 1.000000
vt 0.727273 0.402068
vt 0.727273 0.508775
vt 0.727273 0.672516
vt 0.727273 0.836258
vt 0.727273 1.000000
vt 0.818182 0.402068
vt 0.818182 0.508775
vt 0.818182 0.672516
vt 0.818182 0.836258
vt 0.818182 1.000000
vt 0.909091 0.402068
vt 0.909091 0.508775
vt 0.909091 0.672516
vt 0.909091 0.836258
vt 0.909091 1.000000
vt 1.000000 0.402068
vt 1.000000 0.508775
vt 1.000000 0.672516
vt 1.000000 0.836258
vt 1.000000 1.000000
vn -0.766767 -0.283007 0.576173
vn -0.688380 -0.688516 0.228205
vn -0.716889 -0.632084 0.294177
vn -0.557448 -0.830205 0.003387
vn -0.646908 -0.585585 0.488467
vn -0.680532 -0.561841 0.470330
vn -0.675760 -0.565341 0.473009
vn -0.737959 -0.515911 0.435032
vn -0.547317 -0.772908 0.321025
vn -0.511086 -0.786418 0.346897
vn -0.538423 -0.776422 0.327520
vn -0.450269 -0.804632 0.387073
vn -0.729621 -0.526542 0.436356
vn -0.688525 -0.512094 0.513510
vn -0.680873 -0.509189 0.526439
vn -0.680856 -0.509183 0.526467
vn -0.954614 -0.297831 0.002883
vn -0.954081 -0.299528 0.003444
vn -0.949007 -0.315137 0.008623
vn -0.946568 -0.322316 0.011015
vn -0.799379 -0.600654 0.014411
vn -0.795595 -0.605569 0.017724
vn -0.790431 -0.612149 0.022190
vn -0.785377 -0.618450 0.026499
vn -0.169504 -0.937357 -0.304352
vn -0.575759 -0.817106 -0.028989
vn -0.609513 -0.792776 -0.000023
vn -0.629245 -0.777009 0.017566
vn -0.904122 -0.426280 -0.029122
vn -0.830010 -0.443282 -0.338503
vn -0.807838 -0.441591 -0.390379
vn -0.807786 -0.441586 -0.390492
vn -0.547732 -0.621809 -0.559771
vn -0.248151 -0.815957 -0.522145
vn -0.208568 -0.832817 -0.512753
vn 0.002296 -0.893891 -0.448279
vn -0.574971 -0.574275 -0.582767
vn -0.575391 -0.575935 -0.580710
vn -0.575369 -0.575849 -0.580818
vn -0.576147 -0.578958 -0.576942
vn -0.866234 -0.497605 0.045027
vn -0.670676 -0.736102 -0.091365
vn -0.552860 -0.819333 -0.151786
vn -0.191593 -0.938262 -0.288021
vn -0.744845 -0.426280 -0.513314
vn -0.905003 -0.423937 0.035317
vn -0.904813 -0.424887 0.028028
vn -0.905004 -0.423932 0.035352
vn -0.396949 -0.058374 -0.915982
vn -0.146755 -0.441613 -0.885122
vn -0.258880 -0.287644 -0.922086
vn -0.025871 -0.582408 -0.812485
vn -0.364067 -0.669889 -0.647074
vn -0.328733 -0.635997 -0.698170
vn -0.328129 -0.635404 -0.698995
vn -0.277646 -0.584385 -0.762500
vn -0.595282 -0.410373 -0.690821
vn -0.420810 -0.519456 -0.743697
vn -0.329441 -0.563911 -0.757280
vn -0.277258 -0.586020 -0.761386
vn -0.170336 -0.897322 -0.407184
vn -0.426113 -0.849798 -0.310275
vn -0.383113 -0.863036 -0.329232
vn -0.426140 -0.849789 -0.310263
vn 0.018545 -0.451722 -0.891966
vn 0.091666 -0.332678 -0.938575
vn 0.176802 -0.180252 -0.967600
vn 0.244017 -0.047904 -0.968587
vn 0.206267 -0.585123 -0.784274
vn 0.254373 -0.621023 -0.741367
vn 0.257325 -0.623147 -0.738560
vn 0.283521 -0.641595 -0.712722
vn 0.120724 -0.930941 -0.344637
vn 0.797632 -0.507973 -0.325188
vn 0.578924 -0.730950 -0.361329
vn 0.978403 -0.049854 -0.200603
vn 0.158921 -0.408588 -0.898777
vn 0.946910 -0.276583 -0.163898
vn 0.950244 -0.272173 -0.151522
vn 0.950257 -0.272155 -0.151473
vn 0.275164 -0.855306 -0.439017
vn 0.202979 -0.771986 -0.602359
vn 0.224408 -0.798859 -0.558091
vn -0.003718 -0.445002 -0.895522
vn 0.449064 -0.621807 -0.641636
vn 0.474544 -0.607658 -0.636836
vn 0.469382 -0.610586 -0.637860
vn 0.515727 -0.583124 -0.627688
vn 0.265001 -0.898098 -0.350990
vn 0.083091 -0.925223 -0.370213
vn 0.245058 -0.902670 -0.353744
vn -0.044191 -0.925520 -0.376111
vn 0.589398 -0.496173 -0.637513
vn 0.373253 -0.437037 -0.818340
vn 0.327794 -0.421398 -0.845562
vn 0.327704 -0.421366 -0.845612
vn 0.984200 -0.036979 -0.173155
vn 0.860278 -0.509715 -0.010619
vn 0.973469 -0.191213 -0.125680
vn 0.837318 -0.546698 0.004577
vn 0.655241 -0.743322 -0.134657
vn 0.687067 -0.716881 -0.118405
vn 0.733542 -0.673271 -0.092852
vn 0.786729 -0.614344 -0.060322
vn 0.643099 -0.378455 -0.665729
vn 0.720257 -0.673297 -0.167036
vn 0.711917 -0.695847 -0.094716
vn 0.705052 -0.707265 -0.051753
vn 0.840499 -0.496172 -0.217660
vn 0.566411 -0.497322 -0.657153
vn 0.600267 -0.503185 -0.621679
vn 0.566316 -0.497304 -0.657248
vn 0.650754 -0.759118 -0.016112
vn 0.763261 -0.635189 0.118185
vn 0.861350 -0.412093 0.297079
vn 0.863392 -0.029866 0.503649
vn 0.956974 -0.289581 0.018537
vn 0.787890 -0.548155 0.280634
vn 0.758143 -0.573819 0.309758
vn 0.582173 -0.681167 0.443943
vn 0.875576 -0.474678 -0.089706
vn 0.864510 -0.498899 -0.061003
vn 0.858397 -0.510881 -0.046423
vn 0.853918 -0.519147 -0.036208
vn 0.714623 -0.658822 0.235089
vn 0.730493 -0.668185 -0.141096
vn 0.732839 -0.670705 -0.114463
vn 0.730485 -0.668177 -0.141178
vn 0.366671 -0.174812 0.913780
vn 0.096077 -0.483465 0.870075
vn 0.177806 -0.400935 0.898686
vn 0.009069 -0.562428 0.826796
vn 0.373378 -0.287839 0.881894
vn 0.376465 -0.291884 0.879248
vn 0.376080 -0.291379 0.879581
vn 0.377702 -0.293507 0.878177
vn 0.278038 -0.551952 0.786158
vn 0.238262 -0.510524 0.826194
vn 0.261607 -0.534995 0.803332
vn 0.191421 -0.460167 0.866951
vn 0.482334 -0.643579 0.594272
vn 0.123106 -0.652324 0.747876
vn 0.094677 -0.648879 0.754978
vn 0.094589 -0.648868 0.754999
vn 0.143394 0.097434 0.984858
vn 0.051417 -0.070556 0.996182
vn 0.099897 0.017229 0.994849
vn 0.010686 -0.143055 0.989657
vn 0.148361 -0.179318 0.972540
vn 0.158818 -0.192712 0.968318
vn 0.162214 -0.197063 0.966878
vn 0.187710 -0.229736 0.954980
vn 0.173417 -0.655545 0.734975
vn 0.010436 -0.586222 0.810083
vn 0.124348 -0.636965 0.760798
vn -0.176364 -0.480348 0.859163
vn 0.091407 -0.560423 0.823147
vn -0.158141 -0.578678 0.800077
vn -0.187456 -0.578417 0.793911
vn -0.187533 -0.578416 0.793893
vn -0.000630 0.070496 0.997512
vn -0.002877 0.073990 0.997255
vn -0.008165 0.082208 0.996582
vn -0.015564 0.093694 0.995479
vn -0.255347 -0.493040 0.831691
vn -0.154486 -0.369441 0.916323
vn -0.149826 -0.363592 0.919431
vn -0.030258 -0.209754 0.977286
vn -0.152138 -0.766200 0.624334
vn -0.307398 -0.724312 0.617154
vn -0.192415 -0.757334 0.624036
vn -0.532250 -0.622066 0.574233
vn -0.385230 -0.498863 0.776359
vn -0.541243 -0.515648 0.664201
vn -0.564198 -0.516552 0.644092
vn -0.564251 -0.516553 0.644045
s 1
g polySurface1 low_poly_mill:Mesh
usemtl low_poly_mill:ground
f 7/3/1 2/4/2 6/1/3
f 6/1/3 2/4/2 1/2/4
s 2
f 7/3/5 8/5/6 2/4/7
f 2/4/7 8/5/6 3/6/8
s 3
f 8/5/9 9/7/10 3/6/11
f 3/6/11 9/7/10 4/8/12
s 4
f 10/9/13 5/10/14 9/7/15
f 9/7/15 5/10/14 4/8/16
s 5
f 11/11/17 12/12/18 6/1/19
f 6/1/19 12/12/18 7/3/20
s 6
f 12/12/21 13/13/22 7/3/23
f 7/3/23 13/13/22 8/5/24
s 7
f 14/14/25 9/7/26 13/13/27
f 13/13/27 9/7/26 8/5/28
s 8
f 15/15/29 10/9/30 14/14/31
f 14/14/31 10/9/30 9/7/32
s 9
f 17/17/33 12/12/34 16/16/35
f 16/16/35 12/12/34 11/11/36
s 10
f 17/17/37 18/18/38 12/12/39
f 12/12/39 18/18/38 13/13/40
s 11
f 19/19/41 14/14/42 18/18/43
f 18/18/43 14/14/42 13/13/44
s 12
f 15/15/45 14/14/46 20/20/47
f 19/19/48 20/20/47 14/14/46
s 13
f 22/22/49 17/17/50 21/21/51
f 21/21/51 17/17/50 16/16/52
s 14
f 22/22/53 23/23/54 17/17/55
f 17/17/55 23/23/54 18/18/56
s 15
f 24/24/57 19/19/58 23/23/59
f 23/23/59 19/19/58 18/18/60
s 16
f 20/20/61 19/19/62 25/25/63
f 24/24/64 25/25/63 19/19/62
s 17
f 26/26/65 27/27/66 21/21/67
f 21/21/67 27/27/66 22/22/68
s 18
f 28/28/69 23/23/70 27/27/71
f 27/27/71 23/23/70 22/22/72
s 19
f 28/28/73 29/29/74 23/23/75
f 23/23/75 29/29/74 24/24/76
s 20
f 30/30/77 25/25/78 29/29/79
f 29/29/79 25/25/78 24/24/80
s 21
f 32/32/81 27/27/82 31/31/83
f 31/31/83 27/27/82 26/26/84
s 22
f 32/32/85 33/33/86 27/27/87
f 27/27/87 33/33/86 28/28/88
s 23
f 33/33/89 34/34/90 28/28/91
f 28/28/91 34/34/90 29/29/92
s 24
f 35/35/93 30/30/94 34/34/95
f 34/34/95 30/30/94 29/29/96
s 25
f 37/37/97 32/32/98 36/36/99
f 36/36/99 32/32/98 31/31/100
s 26
f 37/37/101 38/38/102 32/32/103
f 32/32/103 38/38/102 33/33/104
s 27
f 39/39/105 34/34/106 38/38/107
f 38/38/107 34/34/106 33/33/108
s 28
f 35/35/109 34/34/110 40/40/111
f 39/39/112 40/40/111 34/34/110
s 29
f 41/41/113 42/42/114 36/36/115
f 36/36/115 42/42/114 37/37/116
s 30
f 43/43/117 38/38/118 42/42/119
f 42/42/119 38/38/118 37/37/120
s 31
f 44/44/121 39/39/122 43/43/123
f 43/43/123 39/39/122 38/38/124
s 32
f 40/40/125 39/39/126 45/45/127
f 44/44/128 45/45/127 39/39/126
s 33
f 47/47/129 42/42/130 46/46/131
f 46/46/131 42/42/130 41/41/132
s 34
f 47/47/133 48/48/134 42/42/135
f 42/42/135 48/48/134 43/43/136
s 35
f 48/48/137 49/49/138 43/43/139
f 43/43/139 49/49/138 44/44/140
s 36
f 50/50/141 45/45/142 49/49/143
f 49/49/143 45/45/142 44/44/144
s 37
f 52/52/145 47/47/146 51/51/147
f 51/51/147 47/47/146 46/46/148
s 38
f 52/52/149 53/53/150 47/47/151
f 47/47/151 53/53/150 48/48/152
s 39
f 53/53/153 54/54/154 48/48/155
f 48/48/155 54/54/154 49/49/156
s 40
f 55/55/157 50/50/158 54/54/159
f 54/54/159 50/50/158 49/49/160
s 41
f 1/56/161 2/57/162 51/51/163
f 51/51/163 2/57/162 52/52/164
s 42
f 3/58/165 53/53/166 2/57/167
f 2/57/167 53/53/166 52/52/168
s 43
f 3/58/169 4/59/170 53/53/171
f 53/53/171 4/59/170 54/54/172
s 44
f 5/60/173 55/55/174 4/59/175
f 4/59/175 55/55/174 54/54/176
