# This file uses centimeters as units for non-parametric coordinates.

mtllib tree_trunk.mtl
g default
v 0.242568 0.195890 0.447442
v 0.248389 0.195890 0.641637
v 0.083026 0.195890 0.604703
v 0.025760 0.195890 0.447824
v 0.459568 0.195890 0.445146
v 0.405748 0.195890 0.603874
v 0.247250 0.195890 0.251931
v 0.408319 0.195890 0.287728
v 0.078942 0.195890 0.286942
v 0.083776 0.244491 0.443497
v 0.140744 0.255143 0.549801
v 0.168598 0.338561 0.523220
v 0.130012 0.335834 0.438232
v 0.247333 0.246423 0.584676
v 0.351975 0.254917 0.546086
v 0.324872 0.338764 0.511003
v 0.244748 0.332641 0.542406
v 0.400706 0.250504 0.439990
v 0.357686 0.261120 0.334525
v 0.333432 0.347126 0.354622
v 0.365123 0.330942 0.434382
v 0.250397 0.249047 0.293666
v 0.127644 0.261815 0.327518
v 0.159483 0.351842 0.344064
v 0.254541 0.346722 0.320389
v 0.160529 0.433595 0.429373
v 0.179580 0.439567 0.495149
v 0.183488 0.539025 0.482899
v 0.170237 0.540860 0.430741
v 0.244756 0.437206 0.509791
v 0.300356 0.438989 0.485352
v 0.288671 0.541916 0.484623
v 0.235863 0.539764 0.502014
v 0.331612 0.437685 0.430279
v 0.314727 0.445772 0.373762
v 0.301103 0.544257 0.384074
v 0.311373 0.548005 0.436192
v 0.255799 0.441075 0.337342
v 0.183142 0.444159 0.358447
v 0.194609 0.541548 0.369065
v 0.251161 0.545115 0.354910
v 0.249972 0.643147 0.378329
v 0.192681 0.642332 0.380150
v 0.178684 0.730315 0.375800
v 0.247428 0.755133 0.379094
v 0.169300 0.648011 0.434980
v 0.152205 0.748440 0.432776
v 0.174081 0.646524 0.482834
v 0.225456 0.650221 0.500993
v 0.224210 0.752035 0.517231
v 0.161564 0.725132 0.490554
v 0.278390 0.644425 0.488097
v 0.303182 0.648605 0.445018
v 0.294906 0.750124 0.456964
v 0.274787 0.732464 0.509806
v 0.187384 0.812175 0.540912
v 0.135882 0.791310 0.529037
v 0.325089 0.820002 0.496364
v 0.314407 0.804525 0.544106
v 0.235538 0.810640 0.444849
v 0.286285 0.854667 0.413482
v 0.295955 0.822382 0.361014
v 0.130710 0.820231 0.385887
v 0.147450 0.801126 0.343540
v 0.294352 0.644262 0.401497
v 0.299390 0.733897 0.400937
v 0.081186 0.883521 0.327771
v 0.092675 0.875235 0.290566
v 0.279831 0.823726 0.550301
v 0.286250 0.858102 0.492098
v 0.417743 0.882476 0.560571
v 0.412195 0.873202 0.600104
v 0.336017 0.802118 0.372897
v 0.328963 0.814172 0.419204
v 0.192863 0.844266 0.489802
v 0.126642 0.810291 0.486046
v 0.082729 0.869760 0.577105
v 0.128848 0.888146 0.572371
v 0.196152 0.824968 0.342934
v 0.188276 0.851946 0.387093
v 0.389439 0.871880 0.316400
v 0.393100 0.874728 0.351375
v 0.382111 0.903825 0.561248
v 0.455897 0.947531 0.601741
v 0.488326 0.935215 0.596745
v 0.122698 0.905696 0.322915
v 0.126160 0.897627 0.285101
v 0.077603 0.956271 0.255596
v 0.073094 0.958290 0.284794
v 0.098435 0.860220 0.610426
v 0.136703 0.871236 0.611927
v 0.103529 0.931648 0.673356
v 0.070443 0.921896 0.672146
v 0.381966 0.881592 0.608327
v 0.455460 0.929024 0.641922
v 0.354655 0.887537 0.308135
v 0.355180 0.902732 0.351240
v 0.483933 0.925103 0.632695
v 0.395534 0.954644 0.314696
v 0.427546 0.936253 0.316126
v 0.420572 0.936178 0.287190
v 0.390772 0.947970 0.279997
v 0.050955 0.934964 0.263136
v 0.042050 0.937654 0.292549
v 0.092630 0.941220 0.642429
v 0.057644 0.926646 0.645022
vn 0.000000 -1.000000 0.000000
vn 0.000000 -1.000000 0.000000
vn 0.000000 -1.000000 0.000000
vn 0.000000 -1.000000 0.000000
vn 0.000000 -1.000000 0.000000
vn 0.000000 -1.000000 0.000000
vn 0.000000 -1.000000 0.000000
vn 0.000000 -1.000000 0.000000
vn 0.000000 -1.000000 0.000000
vn 0.000000 -1.000000 0.000000
vn 0.000000 -1.000000 0.000000
vn 0.000000 -1.000000 0.000000
vn 0.000000 -1.000000 0.000000
vn 0.000000 -1.000000 0.000000
vn 0.000000 -1.000000 0.000000
vn 0.000000 -1.000000 0.000000
vn -0.823685 0.418893 0.382193
vn -0.823685 0.418893 0.382193
vn -0.823685 0.418893 0.382193
vn -0.823685 0.418893 0.382193
vn 0.288012 0.437718 0.851735
vn 0.288012 0.437718 0.851735
vn 0.288012 0.437718 0.851735
vn 0.288012 0.437718 0.851735
vn 0.886579 0.345492 -0.307593
vn 0.886579 0.345492 -0.307593
vn 0.886579 0.345492 -0.307593
vn 0.886579 0.345492 -0.307593
vn -0.226600 0.259800 -0.938699
vn -0.226600 0.259800 -0.938699
vn -0.226600 0.259800 -0.938699
vn -0.226600 0.259800 -0.938699
vn 0.185600 0.635100 -0.749800
vn 0.185600 0.635100 -0.749800
vn 0.185600 0.635100 -0.749800
vn 0.185600 0.635100 -0.749800
vn 0.624797 0.746297 0.229499
vn 0.624797 0.746297 0.229499
vn 0.624797 0.746297 0.229499
vn 0.624797 0.746297 0.229499
vn -0.148695 0.742374 0.653277
vn -0.148695 0.742374 0.653277
vn -0.148695 0.742374 0.653277
vn -0.148695 0.742374 0.653277
vn -0.685593 0.700993 -0.196398
vn -0.685593 0.700993 -0.196398
vn -0.685593 0.700993 -0.196398
vn -0.685593 0.700993 -0.196398
vn -0.157602 0.607008 -0.778911
vn -0.157602 0.607008 -0.778911
vn -0.157602 0.607008 -0.778911
vn -0.157602 0.607008 -0.778911
vn 0.682204 0.698404 -0.216401
vn 0.682204 0.698404 -0.216401
vn 0.682204 0.698404 -0.216401
vn 0.682204 0.698404 -0.216401
vn 0.162106 0.751229 0.639825
vn 0.162106 0.751229 0.639825
vn 0.162106 0.751229 0.639825
vn 0.162106 0.751229 0.639825
vn -0.598493 0.767791 0.228697
vn -0.598493 0.767791 0.228697
vn -0.598493 0.767791 0.228697
vn -0.598493 0.767791 0.228697
vn -0.962283 0.077099 0.260895
vn -0.962283 0.077099 0.260895
vn -0.962283 0.077099 0.260895
vn -0.962283 0.077099 0.260895
vn 0.356599 0.074300 0.931298
vn 0.356599 0.074300 0.931298
vn 0.356599 0.074300 0.931298
vn 0.356599 0.074300 0.931298
vn 0.957083 0.173297 -0.232296
vn 0.957083 0.173297 -0.232296
vn 0.957083 0.173297 -0.232296
vn 0.957083 0.173297 -0.232296
vn -0.261113 0.142407 -0.954746
vn -0.261113 0.142407 -0.954746
vn -0.261113 0.142407 -0.954746
vn -0.261113 0.142407 -0.954746
vn 0.344999 0.267099 -0.899797
vn 0.344999 0.267099 -0.899797
vn 0.344999 0.267099 -0.899797
vn 0.344999 0.267099 -0.899797
vn 0.830449 0.410224 0.376922
vn 0.830449 0.410224 0.376922
vn 0.830449 0.410224 0.376922
vn 0.830449 0.410224 0.376922
vn -0.231290 0.395284 0.888963
vn -0.231290 0.395284 0.888963
vn -0.231290 0.395284 0.888963
vn -0.231290 0.395284 0.888963
vn -0.884675 0.396089 -0.245893
vn -0.884675 0.396089 -0.245893
vn -0.884675 0.396089 -0.245893
vn -0.884675 0.396089 -0.245893
vn 0.015101 -0.016701 -0.999747
vn 0.015101 -0.016701 -0.999747
vn 0.015101 -0.016701 -0.999747
vn 0.015101 -0.016701 -0.999747
vn -0.913484 -0.163697 -0.372493
vn -0.913484 -0.163697 -0.372493
vn -0.913484 -0.163697 -0.372493
vn -0.913484 -0.163697 -0.372493
vn -0.327006 -0.148903 0.933218
vn -0.327006 -0.148903 0.933218
vn -0.327006 -0.148903 0.933218
vn -0.327006 -0.148903 0.933218
vn 0.907077 -0.017800 0.420589
vn 0.907077 -0.017800 0.420589
vn 0.907077 -0.017800 0.420589
vn 0.907077 -0.017800 0.420589
vn 0.504975 0.162192 -0.847758
vn 0.504975 0.162192 -0.847758
vn 0.504975 0.162192 -0.847758
vn 0.504975 0.162192 -0.847758
vn 0.878009 0.120201 0.463305
vn 0.878009 0.120201 0.463305
vn 0.878009 0.120201 0.463305
vn 0.878009 0.120201 0.463305
vn -0.273809 0.088203 0.957731
vn -0.273809 0.088203 0.957731
vn -0.273809 0.088203 0.957731
vn -0.273809 0.088203 0.957731
vn -0.939256 0.116095 -0.322985
vn -0.939256 0.116095 -0.322985
vn -0.939256 0.116095 -0.322985
vn -0.939256 0.116095 -0.322985
vn -0.095400 -0.477200 0.873601
vn -0.095400 -0.477200 0.873601
vn -0.095400 -0.477200 0.873601
vn -0.095400 -0.477200 0.873601
vn 0.869068 -0.482982 0.106996
vn 0.869068 -0.482982 0.106996
vn 0.869068 -0.482982 0.106996
vn 0.869068 -0.482982 0.106996
vn -0.750471 0.457682 -0.476781
vn -0.750471 0.457682 -0.476781
vn -0.750471 0.457682 -0.476781
vn -0.750471 0.457682 -0.476781
vn -0.871635 -0.441017 -0.213908
vn -0.871635 -0.441017 -0.213908
vn -0.871635 -0.441017 -0.213908
vn -0.871635 -0.441017 -0.213908
vn 0.998666 0.019799 -0.047698
vn 0.998666 0.019799 -0.047698
vn 0.998666 0.019799 -0.047698
vn 0.998666 0.019799 -0.047698
vn 0.143998 -0.190398 0.971089
vn 0.143998 -0.190398 0.971089
vn 0.143998 -0.190398 0.971089
vn 0.143998 -0.190398 0.971089
vn -0.981878 -0.165296 0.092698
vn -0.981878 -0.165296 0.092698
vn -0.981878 -0.165296 0.092698
vn -0.981878 -0.165296 0.092698
vn 0.422520 -0.004300 -0.906343
vn 0.422520 -0.004300 -0.906343
vn 0.422520 -0.004300 -0.906343
vn 0.422520 -0.004300 -0.906343
vn 0.475315 0.195906 -0.857727
vn 0.475315 0.195906 -0.857727
vn 0.475315 0.195906 -0.857727
vn 0.475315 0.195906 -0.857727
vn -0.983152 -0.050798 0.175591
vn -0.983152 -0.050798 0.175591
vn -0.983152 -0.050798 0.175591
vn -0.983152 -0.050798 0.175591
vn 0.275797 0.015700 0.961088
vn 0.275797 0.015700 0.961088
vn 0.275797 0.015700 0.961088
vn 0.275797 0.015700 0.961088
vn 0.974173 0.099097 -0.202894
vn 0.974173 0.099097 -0.202894
vn 0.974173 0.099097 -0.202894
vn 0.974173 0.099097 -0.202894
vn 0.883980 0.052299 0.464590
vn 0.883980 0.052299 0.464590
vn 0.883980 0.052299 0.464590
vn 0.883980 0.052299 0.464590
vn -0.337015 -0.025901 0.941143
vn -0.337015 -0.025901 0.941143
vn -0.337015 -0.025901 0.941143
vn -0.337015 -0.025901 0.941143
vn -0.924952 0.015199 -0.379780
vn -0.924952 0.015199 -0.379780
vn -0.924952 0.015199 -0.379780
vn -0.924952 0.015199 -0.379780
vn -0.143298 0.166998 -0.975488
vn -0.143298 0.166998 -0.975488
vn -0.143298 0.166998 -0.975488
vn -0.143298 0.166998 -0.975488
vn -0.929389 0.272097 -0.249397
vn -0.929389 0.272097 -0.249397
vn -0.929389 0.272097 -0.249397
vn -0.929389 0.272097 -0.249397
vn -0.207007 0.287210 0.935232
vn -0.207007 0.287210 0.935232
vn -0.207007 0.287210 0.935232
vn -0.207007 0.287210 0.935232
vn 0.846798 0.300499 0.438899
vn 0.846798 0.300499 0.438899
vn 0.846798 0.300499 0.438899
vn 0.846798 0.300499 0.438899
vn 0.440712 0.203305 -0.874323
vn 0.440712 0.203305 -0.874323
vn 0.440712 0.203305 -0.874323
vn 0.440712 0.203305 -0.874323
vn -0.244408 0.192207 -0.950432
vn -0.244408 0.192207 -0.950432
vn -0.244408 0.192207 -0.950432
vn -0.244408 0.192207 -0.950432
vn 0.924127 0.255707 -0.283908
vn 0.924127 0.255707 -0.283908
vn 0.924127 0.255707 -0.283908
vn 0.924127 0.255707 -0.283908
vn 0.348808 0.294806 0.889619
vn 0.348808 0.294806 0.889619
vn 0.348808 0.294806 0.889619
vn 0.348808 0.294806 0.889619
vn -0.908781 0.251595 0.332893
vn -0.908781 0.251595 0.332893
vn -0.908781 0.251595 0.332893
vn -0.908781 0.251595 0.332893
vn -0.772725 -0.632221 -0.056502
vn -0.772725 -0.632221 -0.056502
vn -0.772725 -0.632221 -0.056502
vn -0.772725 -0.632221 -0.056502
vn -0.801686 0.532990 0.270595
vn -0.801686 0.532990 0.270595
vn -0.801686 0.532990 0.270595
vn -0.801686 0.532990 0.270595
vn -0.037499 -0.403588 0.914172
vn -0.037499 -0.403588 0.914172
vn -0.037499 -0.403588 0.914172
vn -0.037499 -0.403588 0.914172
vn 0.449780 0.308786 -0.838063
vn 0.449780 0.308786 -0.838063
vn 0.449780 0.308786 -0.838063
vn 0.449780 0.308786 -0.838063
vn 0.609681 -0.785075 -0.109297
vn 0.609681 -0.785075 -0.109297
vn 0.609681 -0.785075 -0.109297
vn 0.609681 -0.785075 -0.109297
vn 0.901948 -0.379278 0.206488
vn 0.901948 -0.379278 0.206488
vn 0.901948 -0.379278 0.206488
vn 0.901948 -0.379278 0.206488
vn 0.230003 0.389805 0.891712
vn 0.230003 0.389805 0.891712
vn 0.230003 0.389805 0.891712
vn 0.230003 0.389805 0.891712
vn 0.149897 -0.401791 -0.903380
vn 0.149897 -0.401791 -0.903380
vn 0.149897 -0.401791 -0.903380
vn 0.149897 -0.401791 -0.903380
vn -0.333696 0.704292 -0.626593
vn -0.333696 0.704292 -0.626593
vn -0.333696 0.704292 -0.626593
vn -0.333696 0.704292 -0.626593
vn 0.818615 0.520309 -0.243204
vn 0.818615 0.520309 -0.243204
vn 0.818615 0.520309 -0.243204
vn 0.818615 0.520309 -0.243204
vn 0.166398 -0.350695 -0.921588
vn 0.166398 -0.350695 -0.921588
vn 0.166398 -0.350695 -0.921588
vn 0.166398 -0.350695 -0.921588
vn -0.395384 0.482680 0.781468
vn -0.395384 0.482680 0.781468
vn -0.395384 0.482680 0.781468
vn -0.395384 0.482680 0.781468
vn 0.798168 -0.585776 0.140694
vn 0.798168 -0.585776 0.140694
vn 0.798168 -0.585776 0.140694
vn 0.798168 -0.585776 0.140694
vn 0.821887 0.399994 0.405594
vn 0.821887 0.399994 0.405594
vn 0.821887 0.399994 0.405594
vn 0.821887 0.399994 0.405594
vn -0.925368 -0.378887 0.011800
vn -0.925368 -0.378887 0.011800
vn -0.925368 -0.378887 0.011800
vn -0.925368 -0.378887 0.011800
vn -0.290507 0.577415 -0.763019
vn -0.290507 0.577415 -0.763019
vn -0.290507 0.577415 -0.763019
vn -0.290507 0.577415 -0.763019
vn 0.155501 0.461502 -0.873404
vn 0.155501 0.461502 -0.873404
vn 0.155501 0.461502 -0.873404
vn 0.155501 0.461502 -0.873404
vn 0.752604 0.658403 -0.009600
vn 0.752604 0.658403 -0.009600
vn 0.752604 0.658403 -0.009600
vn 0.752604 0.658403 -0.009600
vn 0.163795 -0.658680 0.734378
vn 0.163795 -0.658680 0.734378
vn 0.163795 -0.658680 0.734378
vn 0.163795 -0.658680 0.734378
vn -0.611393 0.718592 0.331396
vn -0.611393 0.718592 0.331396
vn -0.611393 0.718592 0.331396
vn -0.611393 0.718592 0.331396
vn -0.068801 -0.593205 -0.802106
vn -0.068801 -0.593205 -0.802106
vn -0.068801 -0.593205 -0.802106
vn -0.068801 -0.593205 -0.802106
vn -0.812802 -0.580501 0.048700
vn -0.812802 -0.580501 0.048700
vn -0.812802 -0.580501 0.048700
vn -0.812802 -0.580501 0.048700
vn 0.203402 -0.474004 -0.856708
vn 0.203402 -0.474004 -0.856708
vn 0.203402 -0.474004 -0.856708
vn 0.203402 -0.474004 -0.856708
vn 0.150896 -0.712379 0.685380
vn 0.150896 -0.712379 0.685380
vn 0.150896 -0.712379 0.685380
vn 0.150896 -0.712379 0.685380
vn -0.600606 0.719207 0.349304
vn -0.600606 0.719207 0.349304
vn -0.600606 0.719207 0.349304
vn -0.600606 0.719207 0.349304
vn 0.364702 0.496503 0.787704
vn 0.364702 0.496503 0.787704
vn 0.364702 0.496503 0.787704
vn 0.364702 0.496503 0.787704
vn 0.362620 0.403522 -0.840046
vn 0.362620 0.403522 -0.840046
vn 0.362620 0.403522 -0.840046
vn 0.362620 0.403522 -0.840046
vn 0.749515 0.639813 -0.169903
vn 0.749515 0.639813 -0.169903
vn 0.749515 0.639813 -0.169903
vn 0.749515 0.639813 -0.169903
vn -0.776704 0.531303 -0.338302
vn -0.776704 0.531303 -0.338302
vn -0.776704 0.531303 -0.338302
vn -0.776704 0.531303 -0.338302
vn 0.813990 0.519694 0.259497
vn 0.813990 0.519694 0.259497
vn 0.813990 0.519694 0.259497
vn 0.813990 0.519694 0.259497
vn -0.076900 -0.597599 0.798099
vn -0.076900 -0.597599 0.798099
vn -0.076900 -0.597599 0.798099
vn -0.076900 -0.597599 0.798099
vn -0.272404 0.554109 0.786613
vn -0.272404 0.554109 0.786613
vn -0.272404 0.554109 0.786613
vn -0.272404 0.554109 0.786613
vn 0.316900 0.881001 0.351300
vn 0.316900 0.881001 0.351300
vn 0.316900 0.881001 0.351300
vn 0.316900 0.881001 0.351300
vn 0.451707 0.874613 -0.176103
vn 0.451707 0.874613 -0.176103
vn 0.451707 0.874613 -0.176103
vn 0.451707 0.874613 -0.176103
vn -0.610407 0.766108 -0.201202
vn -0.610407 0.766108 -0.201202
vn -0.610407 0.766108 -0.201202
vn -0.610407 0.766108 -0.201202
vn -0.309592 0.886078 0.344991
vn -0.309592 0.886078 0.344991
vn -0.309592 0.886078 0.344991
vn -0.309592 0.886078 0.344991
vn -0.134505 0.482817 0.865330
vn -0.134505 0.482817 0.865330
vn -0.134505 0.482817 0.865330
vn -0.134505 0.482817 0.865330
vn 0.091802 -0.641613 0.761515
vn 0.091802 -0.641613 0.761515
vn 0.091802 -0.641613 0.761515
vn 0.091802 -0.641613 0.761515
vn -0.771766 -0.621673 -0.133794
vn -0.771766 -0.621673 -0.133794
vn -0.771766 -0.621673 -0.133794
vn -0.771766 -0.621673 -0.133794
vn 0.624188 -0.772585 -0.116198
vn 0.624188 -0.772585 -0.116198
vn 0.624188 -0.772585 -0.116198
vn 0.624188 -0.772585 -0.116198
vn 0.078903 -0.382614 -0.920533
vn 0.078903 -0.382614 -0.920533
vn 0.078903 -0.382614 -0.920533
vn 0.078903 -0.382614 -0.920533
vn 0.244493 0.398289 0.884075
vn 0.244493 0.398289 0.884075
vn 0.244493 0.398289 0.884075
vn 0.244493 0.398289 0.884075
vn 0.841786 0.539391 -0.021300
vn 0.841786 0.539391 -0.021300
vn 0.841786 0.539391 -0.021300
vn 0.841786 0.539391 -0.021300
vn -0.846637 0.524523 -0.089904
vn -0.846637 0.524523 -0.089904
vn -0.846637 0.524523 -0.089904
vn -0.846637 0.524523 -0.089904
vn -0.329697 0.661493 -0.673593
vn -0.329697 0.661493 -0.673593
vn -0.329697 0.661493 -0.673593
vn -0.329697 0.661493 -0.673593
vn 0.854176 -0.506186 -0.118997
vn 0.854176 -0.506186 -0.118997
vn 0.854176 -0.506186 -0.118997
vn 0.854176 -0.506186 -0.118997
vn -0.773696 -0.592297 0.224899
vn -0.773696 -0.592297 0.224899
vn -0.773696 -0.592297 0.224899
vn -0.773696 -0.592297 0.224899
vn 0.032200 -0.431798 -0.901395
vn 0.032200 -0.431798 -0.901395
vn 0.032200 -0.431798 -0.901395
vn 0.032200 -0.431798 -0.901395
s 1
g polySurface1
usemtl initialShadingGroup
f 2//1 3//2 1//3
f 1//3 3//2 4//4
s 2
f 5//5 6//6 1//7
f 1//7 6//6 2//8
s 3
f 7//9 8//10 1//11
f 1//11 8//10 5//12
s 4
f 4//13 9//14 1//15
f 1//15 9//14 7//16
s 5
f 10//17 11//18 13//19
f 13//19 11//18 12//20
s 6
f 14//21 15//22 17//23
f 17//23 15//22 16//24
s 7
f 18//25 19//26 21//27
f 21//27 19//26 20//28
s 8
f 23//29 24//30 22//31
f 22//31 24//30 25//32
s 9
f 8//33 7//34 19//35
f 19//35 7//34 22//36
s 10
f 6//37 5//38 15//39
f 15//39 5//38 18//40
s 11
f 3//41 2//42 11//43
f 11//43 2//42 14//44
s 12
f 4//45 10//46 9//47
f 9//47 10//46 23//48
s 13
f 9//49 23//50 7//51
f 7//51 23//50 22//52
s 14
f 5//53 8//54 18//55
f 18//55 8//54 19//56
s 15
f 6//57 15//58 2//59
f 2//59 15//58 14//60
s 16
f 3//61 11//62 4//63
f 4//63 11//62 10//64
s 17
f 26//65 27//66 29//67
f 29//67 27//66 28//68
s 18
f 31//69 32//70 30//71
f 30//71 32//70 33//72
s 19
f 34//73 35//74 37//75
f 37//75 35//74 36//76
s 20
f 38//77 39//78 41//79
f 41//79 39//78 40//80
s 21
f 22//81 25//82 19//83
f 19//83 25//82 20//84
s 22
f 18//85 21//86 15//87
f 15//87 21//86 16//88
s 23
f 14//89 17//90 11//91
f 11//91 17//90 12//92
s 24
f 10//93 13//94 23//95
f 23//95 13//94 24//96
s 25
f 43//97 44//98 42//99
f 42//99 44//98 45//100
s 26
f 43//101 46//102 44//103
f 44//103 46//102 47//104
s 27
f 48//105 49//106 51//107
f 51//107 49//106 50//108
s 28
f 52//109 53//110 55//111
f 55//111 53//110 54//112
s 29
f 38//113 41//114 35//115
f 35//115 41//114 36//116
s 30
f 34//117 37//118 31//119
f 31//119 37//118 32//120
s 31
f 30//121 33//122 27//123
f 27//123 33//122 28//124
s 32
f 26//125 29//126 39//127
f 39//127 29//126 40//128
s 33
f 51//129 50//130 57//131
f 57//131 50//130 56//132
s 34
f 54//133 58//134 55//135
f 55//135 58//134 59//136
s 35
f 45//137 60//138 62//139
f 62//139 60//138 61//140
s 36
f 47//141 63//142 44//143
f 44//143 63//142 64//144
s 37
f 65//145 66//146 53//147
f 53//147 66//146 54//148
s 38
f 52//149 55//150 49//151
f 49//151 55//150 50//152
s 39
f 48//153 51//154 46//155
f 46//155 51//154 47//156
s 40
f 65//157 42//158 66//159
f 66//159 42//158 45//160
s 41
f 41//161 42//162 36//163
f 36//163 42//162 65//164
s 42
f 28//165 48//166 29//167
f 29//167 48//166 46//168
s 43
f 32//169 52//170 33//171
f 33//171 52//170 49//172
s 44
f 36//173 65//174 37//175
f 37//175 65//174 53//176
s 45
f 32//177 37//178 52//179
f 52//179 37//178 53//180
s 46
f 33//181 49//182 28//183
f 28//183 49//182 48//184
s 47
f 40//185 29//186 43//187
f 43//187 29//186 46//188
s 48
f 41//189 40//190 42//191
f 42//191 40//190 43//192
s 49
f 13//193 26//194 24//195
f 24//195 26//194 39//196
s 50
f 17//197 30//198 12//199
f 12//199 30//198 27//200
s 51
f 21//201 34//202 16//203
f 16//203 34//202 31//204
s 52
f 25//205 38//206 20//207
f 20//207 38//206 35//208
s 53
f 24//209 39//210 25//211
f 25//211 39//210 38//212
s 54
f 21//213 20//214 34//215
f 34//215 20//214 35//216
s 55
f 17//217 16//218 30//219
f 30//219 16//218 31//220
s 56
f 12//221 27//222 13//223
f 13//223 27//222 26//224
s 57
f 63//225 67//226 64//227
f 64//227 67//226 68//228
s 58
f 50//229 69//230 60//231
f 60//231 69//230 70//232
s 59
f 50//233 55//234 69//235
f 69//235 55//234 59//236
s 60
f 54//237 60//238 58//239
f 58//239 60//238 70//240
s 61
f 58//241 71//242 59//243
f 59//243 71//242 72//244
s 62
f 54//245 66//246 74//247
f 74//247 66//246 73//248
s 63
f 54//249 74//250 60//251
f 60//251 74//250 61//252
s 64
f 45//253 62//254 66//255
f 66//255 62//254 73//256
s 65
f 75//257 76//258 78//259
f 78//259 76//258 77//260
s 66
f 45//261 79//262 60//263
f 60//263 79//262 80//264
s 67
f 45//265 44//266 79//267
f 79//267 44//266 64//268
s 68
f 60//269 80//270 47//271
f 47//271 80//270 63//272
s 69
f 74//273 73//274 82//275
f 82//275 73//274 81//276
s 70
f 60//277 75//278 50//279
f 50//279 75//278 56//280
s 71
f 47//281 51//282 76//283
f 76//283 51//282 57//284
s 72
f 47//285 76//286 60//287
f 60//287 76//286 75//288
s 73
f 83//289 84//290 71//291
f 71//291 84//290 85//292
s 74
f 86//293 87//294 89//295
f 89//295 87//294 88//296
s 75
f 91//297 92//298 90//299
f 90//299 92//298 93//300
s 76
f 83//301 94//302 84//303
f 84//303 94//302 95//304
s 77
f 62//305 96//306 73//307
f 73//307 96//306 81//308
s 78
f 76//309 57//310 77//311
f 77//311 57//310 90//312
s 79
f 79//313 64//314 87//315
f 87//315 64//314 68//316
s 80
f 56//317 91//318 57//319
f 57//319 91//318 90//320
s 81
f 70//321 69//322 83//323
f 83//323 69//322 94//324
s 82
f 61//325 74//326 97//327
f 97//327 74//326 82//328
s 83
f 70//329 83//330 58//331
f 58//331 83//330 71//332
s 84
f 80//333 79//334 86//335
f 86//335 79//334 87//336
s 85
f 61//337 97//338 62//339
f 62//339 97//338 96//340
s 86
f 75//341 78//342 56//343
f 56//343 78//342 91//344
s 87
f 69//345 59//346 94//347
f 94//347 59//346 72//348
s 88
f 80//349 86//350 63//351
f 63//351 86//350 67//352
s 89
f 95//353 98//354 84//355
f 84//355 98//354 85//356
s 90
f 100//357 101//358 99//359
f 99//359 101//358 102//360
s 91
f 88//361 103//362 89//363
f 89//363 103//362 104//364
s 92
f 106//365 93//366 105//367
f 105//367 93//366 92//368
s 93
f 86//369 89//370 67//371
f 67//371 89//370 104//372
s 94
f 94//373 72//374 95//375
f 95//375 72//374 98//376
s 95
f 67//377 104//378 68//379
f 68//379 104//378 103//380
s 96
f 71//381 85//382 72//383
f 72//383 85//382 98//384
s 97
f 68//385 103//386 87//387
f 87//387 103//386 88//388
s 98
f 82//389 100//390 97//391
f 97//391 100//390 99//392
s 99
f 78//393 105//394 91//395
f 91//395 105//394 92//396
s 100
f 97//397 99//398 96//399
f 96//399 99//398 102//400
s 101
f 78//401 77//402 105//403
f 105//403 77//402 106//404
s 102
f 82//405 81//406 100//407
f 100//407 81//406 101//408
s 103
f 77//409 90//410 106//411
f 106//411 90//410 93//412
s 104
f 96//413 102//414 81//415
f 81//415 102//414 101//416
